<?xml version="1.0" encoding="UTF-8" standalone="no"?>
<svg width="165px" height="27px" viewBox="0 0 165 27" version="1.1" xmlns="http://www.w3.org/2000/svg" xmlns:xlink="http://www.w3.org/1999/xlink" xmlns:sketch="http://www.bohemiancoding.com/sketch/ns">
    <!-- Generator: Sketch 3.4.4 (17249) - http://www.bohemiancoding.com/sketch -->
    <title>CheggTutorsLogo-TransparentBG</title>
    <desc>Created with Sketch.</desc>
    <defs></defs>
    <g id="Tutors-Navigation" stroke="none" stroke-width="1" fill="none" fill-rule="evenodd" sketch:type="MSPage">
        <g id="Extracted-Assets" sketch:type="MSArtboardGroup" transform="translate(-14.000000, -123.000000)">
            <g id="CheggTutorsLogo-TransparentBG" sketch:type="MSLayerGroup" transform="translate(14.000000, 123.000000)">
                <g id="Group" transform="translate(95.134458, 3.115385)" fill="#EB7100" sketch:type="MSShapeGroup">
                    <path d="M14.7458783,1.05376346 L14.7458783,0.750709991 C14.7458783,0.34618468 14.519099,0.11872432 14.1166167,0.11872432 L0.932088062,0.11872432 C0.529605809,0.11872432 0.302826467,0.34618468 0.302826467,0.750709991 L0.302826467,1.05376346 C0.302826467,1.45760776 0.529605809,1.68574914 0.932088062,1.68574914 L6.64379477,1.68574914 L6.64379477,17.2518014 C6.64379477,17.6556457 6.86989309,17.883106 7.27237535,17.883106 L7.77564842,17.883106 C8.17881169,17.883106 8.37971231,17.6556457 8.37971231,17.2518014 L8.37971231,1.68574914 L14.1166167,1.68574914 C14.519099,1.68574914 14.7458783,1.45760776 14.7458783,1.05376346" id="Fill-1"></path>
                    <path d="M24.6853512,5.17256663 L24.2072759,5.17256663 C23.8047936,5.17256663 23.5786953,5.40002699 23.5786953,5.8045523 L23.5786953,11.2629199 C23.5786953,14.0169609 21.7917013,16.5694203 18.8980514,16.5694203 C16.4579602,16.5694203 16.1555877,14.8001328 16.1555877,12.804066 L16.1555877,5.8045523 C16.1555877,5.40002699 15.9294894,5.17256663 15.5270072,5.17256663 L15.0489318,5.17256663 C14.6464495,5.17256663 14.4448679,5.40002699 14.4448679,5.8045523 L14.4448679,13.2589867 C14.4448679,16.5694203 15.6775124,18.1868405 18.6719531,18.1868405 C21.4648122,18.1868405 23.175532,16.1144996 23.6536074,14.8757259 L23.7046838,14.8757259 C23.7046838,14.8757259 23.6284097,15.2802513 23.6284097,15.7855674 L23.6284097,17.2518014 C23.6284097,17.6556457 23.8299913,17.883106 24.2324736,17.883106 L24.6853512,17.883106 C25.0878335,17.883106 25.2894151,17.6556457 25.2894151,17.2518014 L25.2894151,5.8045523 C25.2894151,5.40002699 25.0878335,5.17256663 24.6853512,5.17256663" id="Fill-2"></path>
                    <path d="M34.1719465,16.4175531 C33.1905981,16.3664766 31.4042851,16.0130277 31.4042851,13.0819218 L31.4042851,6.71371272 L33.9703649,6.71371272 C34.3735281,6.71371272 34.5996265,6.51145007 34.5996265,6.10760578 L34.5996265,5.90534312 C34.5996265,5.50081781 34.3735281,5.27403847 33.9703649,5.27403847 L31.4042851,5.27403847 L31.4042851,2.29185608 C31.4042851,1.88801179 31.2027035,1.65987041 30.8002212,1.65987041 L30.3473436,1.65987041 C29.9448613,1.65987041 29.718763,1.88801179 29.718763,2.29185608 L29.718763,5.27403847 L28.6366237,5.27403847 C28.2341415,5.27403847 28.0325598,5.50081781 28.0325598,5.90534312 L28.0325598,6.10760578 C28.0325598,6.51145007 28.2341415,6.71371272 28.6366237,6.71371272 L29.6928843,6.71371272 L29.6928843,13.3093821 C29.6928843,16.2908835 31.3790874,17.9838969 34.1467488,17.9838969 C34.6500219,17.9838969 34.8509225,17.7823152 34.8509225,17.3777899 L34.8509225,17.0495387 C34.8509225,16.6198157 34.6752196,16.4679485 34.1719465,16.4175531" id="Fill-3"></path>
                    <path d="M42.9039727,4.86951316 C39.2298749,4.86951316 36.2361152,7.6998283 36.2361152,11.4645016 C36.2361152,15.305449 39.2298749,18.1868405 42.9291704,18.1868405 C46.6025871,18.1868405 49.5970278,15.305449 49.5970278,11.4645016 C49.5970278,7.6998283 46.6025871,4.86951316 42.9039727,4.86951316 L42.9039727,4.86951316 Z M42.9291704,16.6450134 C40.2112234,16.6450134 37.9972305,14.4214862 37.9972305,11.4645016 C37.9972305,8.58379101 40.2112234,6.41065925 42.9291704,6.41065925 C45.6212386,6.41065925 47.8352315,8.58379101 47.8352315,11.4645016 C47.8352315,14.4214862 45.6212386,16.6450134 42.9291704,16.6450134 L42.9291704,16.6450134 Z" id="Fill-4"></path>
                    <path d="M58.3038563,5.09697352 C56.290764,5.09697352 54.8313402,6.68851502 54.2272763,8.53339561 L54.1775619,8.53339561 C54.1775619,8.53339561 54.2776717,8.0791559 54.2776717,7.52276335 L54.2776717,5.8045523 C54.2776717,5.40002699 54.0515734,5.17256663 53.6742888,5.17256663 L53.2207301,5.17256663 C52.8182479,5.17256663 52.5921495,5.40002699 52.5921495,5.8045523 L52.5921495,17.2518014 C52.5921495,17.6556457 52.8182479,17.883106 53.2207301,17.883106 L53.6988055,17.883106 C54.1012877,17.883106 54.3028694,17.6556457 54.3028694,17.2518014 L54.3028694,12.5003315 C54.3028694,9.84776236 55.5859093,6.78998686 58.2534608,6.78998686 C58.6811408,6.78998686 58.9576345,6.5625265 58.9576345,6.15800119 L58.9576345,5.70308047 C58.9576345,5.29855515 58.7567339,5.09697352 58.3038563,5.09697352" id="Fill-5"></path>
                    <path d="M62.1536569,8.35701167 C62.1536569,6.96705181 63.3113893,6.38546155 64.6448246,6.38546155 C65.9782598,6.38546155 66.8840152,6.86626099 67.3620905,7.19383115 C67.7148584,7.3960938 68.0165498,7.3708961 68.2174505,7.01744722 L68.3938344,6.73959145 C68.595416,6.41065925 68.5450206,6.10760578 68.2174505,5.90534312 C67.6896607,5.52669653 66.557126,4.86951316 64.7456154,4.86951316 C62.4308317,4.86951316 60.4429371,6.08240807 60.4429371,8.43260479 C60.4429371,12.6270011 67.2115853,11.767555 67.2115853,14.6237489 C67.2115853,15.9626323 66.053853,16.6702111 64.6448246,16.6702111 C63.0090168,16.6702111 61.8519655,15.9374346 61.298297,15.5077116 C60.9462101,15.2802513 60.6697164,15.305449 60.4429371,15.6085024 L60.2413554,15.8618415 C60.0152571,16.1900927 60.0404548,16.4931462 60.3421462,16.7206065 C60.9714078,17.2518014 62.4056339,18.1868405 64.6196269,18.1868405 C67.1359922,18.1868405 68.8971075,16.6954088 68.8971075,14.5978702 C68.8971075,10.3530785 62.1536569,11.2874366 62.1536569,8.35701167" id="Fill-6"></path>
                </g>
                <path d="M91.5935722,6.13981671 C90.1790027,6.13032826 89.0554123,7.21833699 89.0459238,8.62974367 C89.0372261,10.0403596 90.1426303,11.1750199 91.5382229,11.1837176 C92.9361876,11.1939968 94.0415918,10.0870112 94.0494989,8.6756045 C94.0684758,7.26419782 92.97256,6.14851445 91.5935722,6.13981671 L91.5935722,6.13981671 Z M91.5571998,10.6586902 C90.4699818,10.6586902 89.6579287,9.75491548 89.6666265,8.63844141 C89.6769056,7.53145578 90.5071448,6.63796024 91.5571998,6.64665799 C92.6444178,6.65614643 93.4382846,7.56861887 93.4287962,8.68430224 C93.4200985,9.79128787 92.6167432,10.6863648 91.5571998,10.6586902 L91.5571998,10.6586902 Z" id="Fill-7" fill="#EB7100" sketch:type="MSShapeGroup"></path>
                <path d="M92.1233439,8.74044223 L92.1233439,8.70327914 C92.4064159,8.61076677 92.6341387,8.41704428 92.6341387,8.11341394 C92.6341387,7.86434217 92.53451,7.67931743 92.3882297,7.56861887 C92.2237633,7.44922256 92.0142267,7.36619864 91.5571998,7.36619864 C91.1555221,7.36619864 90.8360777,7.40336173 90.6178434,7.43024567 L90.5988665,9.94863797 L91.1650106,9.95812642 L91.1737083,8.9523509 L91.4385942,8.96183935 C91.7493409,8.96183935 91.8956211,9.09072411 91.9406912,9.34928432 C92.0142267,9.65370537 92.0505991,9.87431179 92.1233439,9.95812642 L92.726651,9.96682416 C92.6799995,9.87431179 92.6167432,9.73672929 92.5432077,9.34928432 C92.4791607,9.01718863 92.3605551,8.8139777 92.1233439,8.74044223 L92.1233439,8.74044223 Z M91.4575711,8.54671974 L91.1918945,8.54671974 L91.1918945,7.81769064 C91.2559416,7.80899289 91.356361,7.790016 91.5026412,7.790016 C91.858458,7.79950445 92.0229245,7.9473661 92.0229245,8.17746097 C92.0229245,8.44550963 91.7667364,8.54671974 91.4575711,8.54671974 L91.4575711,8.54671974 Z" id="Fill-8" fill="#EB7100" sketch:type="MSShapeGroup"></path>
                <path d="M15.9255696,14.0729501 C14.7110483,14.2658819 14.1812766,15.7792894 13.3138743,16.5810633 C12.3919134,17.5314895 10.592271,17.5314895 9.47895978,16.9408336 C7.31480288,15.6875677 7.2602443,13.159687 7.28712824,10.816831 C7.28712824,8.77918672 8.164019,6.65772784 9.90752136,5.7444647 C12.2820055,4.73947989 13.843646,7.02698662 15.3230532,8.44709104 C16.8016697,8.97290921 18.75629,9.11049171 20.0981148,8.05015762 C20.527467,7.16456912 20.2080226,6.04888575 19.8055543,5.26529806 C19.1484792,3.78905366 17.6421881,2.12066818 16.2173394,1.55768692 C13.2316411,-0.000790704019 8.97686273,-0.000790704019 5.97218746,1.55768692 C3.6989134,2.78406885 1.84550318,5.26529806 1.26987065,7.74573657 C0.183443332,12.0993529 0.868193013,16.913159 4.06421866,20.0127187 C7.10447561,22.8529276 12.227447,23.04665 15.9255696,21.5711963 C18.254193,20.4262569 20.308442,17.8904691 20.4452338,15.1617496 C19.8055543,13.3257348 17.4595354,14.1551834 15.9255696,14.0729501" id="Fill-9" fill="#EB7100" sketch:type="MSShapeGroup"></path>
                <path d="M35.7580079,7.55201409 C33.8587368,5.43134591 30.8453638,5.82827933 28.5262289,6.65772784 C26.3075134,6.04888575 27.5947796,2.9501167 26.6182601,1.33628979 C25.4037387,0.220606421 22.6821355,0.109907859 21.7048253,1.6130362 C21.1845421,6.49168 21.5498473,11.7024195 21.4217533,16.7479018 C21.6866391,18.2597279 21.1030996,20.2333251 22.3713888,21.2659846 C23.6594457,21.847152 25.3302033,21.7372442 26.6000739,21.0177035 C27.4398016,18.6479636 26.9369138,15.6583117 27.2848236,13.0402907 L28.1791098,11.3434399 C28.7365562,11.0105535 29.4213058,10.7061324 30.1060555,11.0105535 C32.2702124,12.2100515 31.4296941,15.1332842 31.6123467,17.3931163 C31.6400213,18.8416861 31.4296941,20.399373 32.5896569,21.3490085 C33.6760842,21.6534296 34.7530231,21.7095696 35.9224743,21.4873817 C36.6341079,21.2659846 37.1638796,20.455513 37.2374151,19.7082977 C37.0816464,15.5768692 38.1688644,10.7614817 35.7580079,7.55201409" id="Fill-10" fill="#EB7100" sketch:type="MSShapeGroup"></path>
                <path d="M41.327727,7.55201409 C38.7713809,9.48054119 38.004398,12.5974964 38.4242618,15.8346387 C38.8986842,18.3704265 40.8256299,20.9346796 43.2641611,21.5435217 C46.7701427,22.4101333 51.1522244,22.2709694 53.3709399,18.9515939 C53.6635004,18.3435425 53.5907556,17.4761402 52.8965175,17.0886953 C51.0525957,16.0837105 49.2529534,17.3654417 47.6462428,18.0573077 C46.6420487,18.4257758 45.4820859,18.1395409 44.8708717,17.1986031 C44.5237526,16.525714 44.8708717,15.6875677 45.5279467,15.4653799 C48.5421104,14.6074661 51.7642293,17.0325553 54.3031799,14.8288632 C55.1974662,12.8181029 54.2209467,10.7614817 53.2713112,9.13895705 C50.4674747,5.40367127 44.7609638,4.96087702 41.327727,7.55201409 L41.327727,7.55201409 Z M48.0400134,11.6470702 C47.3813569,12.1823768 46.240371,12.5144725 45.4552019,11.896142 C44.843197,11.7024195 44.8708717,10.9275295 45.0804082,10.5037122 C45.738274,9.64579833 47.3813569,9.64579833 47.9846641,10.4206883 C48.0937813,10.7614817 48.3586671,11.2596252 48.0400134,11.6470702 L48.0400134,11.6470702 Z" id="Fill-11" fill="#EB7100" sketch:type="MSShapeGroup"></path>
                <path d="M70.8850339,6.91628806 C69.4601853,5.91051254 67.478681,6.49168 66.0546231,6.9439627 C63.6168826,6.07656039 60.0009931,5.23762342 57.8913948,7.46978087 C56.0925431,9.19430633 55.5350968,11.5925116 55.6726793,14.2113233 C55.6995632,15.8623133 56.2293349,17.4215817 57.2343197,18.6748475 C57.7814869,19.3667135 58.4662366,20.0127187 59.2885688,20.455513 C60.9039771,21.6534296 62.9590168,20.7678411 64.7309845,20.5377462 C65.3603849,20.6492355 65.8632727,21.4328231 65.5248514,22.1333869 C65.1231737,23.073534 64.1458636,23.5534913 63.2246934,23.3320942 C61.644076,22.1610615 59.1873587,22.1333869 57.444647,23.0189754 C57.3070645,23.5534913 57.0967372,24.0516349 57.444647,24.6138254 C57.6541836,24.8075479 57.8368362,24.9743864 58.0194888,25.1681089 C60.8778838,27.4832903 65.1508484,27.0950546 68.3460833,26.0900698 C69.8523745,25.3610407 70.9395925,23.7472138 71.232153,22.1333869 C71.6243422,17.6137227 71.6789007,12.708195 71.4693642,8.05015762 L70.8850339,6.91628806 L70.8850339,6.91628806 Z M64.5475412,16.221293 C63.8627915,16.6095286 63.1234833,16.4434808 62.4292451,16.0837105 C61.7998447,15.3538906 61.2977477,14.5244421 61.4060741,13.3810841 C61.3254223,12.4314486 61.7176115,11.6747448 62.3288257,11.0105535 C63.068134,10.3930136 64.3561908,10.3099897 65.050429,11.121252 C65.6806201,11.7854434 65.8632727,12.6528457 65.9447152,13.5748066 C65.8632727,14.6074661 65.4157342,15.6875677 64.5475412,16.221293 L64.5475412,16.221293 Z" id="Fill-12" fill="#EB7100" sketch:type="MSShapeGroup"></path>
                <path d="M87.7863323,6.91628806 C86.3614837,5.91051254 84.3807701,6.49168 82.9559215,6.9439627 C80.5268787,6.07656039 76.9022915,5.23762342 74.7934839,7.46978087 C72.9938415,9.19430633 72.4363952,11.5925116 72.5739777,14.2113233 C72.6016523,15.8623133 73.131424,17.4215817 74.1356181,18.6748475 C74.683576,19.3667135 75.3683257,20.0127187 76.1898672,20.455513 C77.8068569,21.6534296 79.8611059,20.7678411 81.6314922,20.5377462 C82.262474,20.6492355 82.7645711,21.4328231 82.4261498,22.1333869 C82.0244721,23.073534 81.0479527,23.5534913 80.1244104,23.3320942 C78.5453744,22.1610615 76.0886571,22.1333869 74.3459454,23.0189754 C74.2083629,23.5534913 73.9988263,24.0516349 74.3459454,24.6138254 C74.555482,24.8075479 74.7381346,24.9743864 74.9207872,25.1681089 C77.7791823,27.4832903 82.0529375,27.0950546 85.2489631,26.0900698 C86.7544636,25.3610407 87.8408909,23.7472138 88.1334514,22.1333869 C88.5256406,17.6137227 88.5809899,12.708195 88.3706626,8.05015762 L87.7863323,6.91628806 L87.7863323,6.91628806 Z M81.4488396,16.221293 C80.7640899,16.6095286 80.0247817,16.4434808 79.3313342,16.0837105 C78.7011431,15.3538906 78.1990461,14.5244421 78.3081632,13.3810841 C78.2267207,12.4314486 78.6189099,11.6747448 79.2309148,11.0105535 C79.9694324,10.3930136 81.266187,10.3099897 81.9509367,11.121252 C82.5819185,11.7854434 82.7645711,12.6528457 82.8468043,13.5748066 C82.7645711,14.6074661 82.3162419,15.6875677 81.4488396,16.221293 L81.4488396,16.221293 Z" id="Fill-13" fill="#EB7100" sketch:type="MSShapeGroup"></path>
            </g>
        </g>
    </g>
</svg>
